<?xml version="1.0" standalone="no"?>
<!DOCTYPE svg PUBLIC "-//W3C//DTD SVG 20010904//EN"
 "http://www.w3.org/TR/2001/REC-SVG-20010904/DTD/svg10.dtd">
<svg version="1.0" xmlns="http://www.w3.org/2000/svg"
 width="512.000000pt" height="512.000000pt" viewBox="0 0 512.000000 512.000000"
 preserveAspectRatio="xMidYMid meet">
<metadata>
Created by potrace 1.14, written by Peter Selinger 2001-2017
</metadata>
<g transform="translate(0.000000,512.000000) scale(0.100000,-0.100000)"
fill="#000000" stroke="none">
<path d="M2457 5114 c-1 -1 -45 -4 -97 -8 -366 -25 -772 -153 -1101 -349 -113
-67 -299 -200 -382 -275 -360 -319 -624 -728 -762 -1177 -37 -123 -42 -141
-56 -210 -6 -33 -12 -64 -14 -70 -1 -5 -5 -32 -9 -60 -4 -27 -10 -61 -12 -75
-11 -67 -18 -199 -18 -330 0 -140 11 -337 19 -351 3 -3 7 -26 9 -50 7 -70 35
-194 71 -319 193 -671 670 -1246 1300 -1568 218 -111 503 -206 715 -237 19 -3
45 -8 57 -10 69 -15 154 -20 378 -20 247 0 292 3 430 25 592 95 1172 430 1545
890 25 30 47 57 50 60 24 22 156 218 202 300 14 25 34 61 46 81 36 64 121 262
156 366 52 149 96 334 113 467 2 23 8 73 13 111 9 70 6 512 -3 550 -2 11 -8
45 -12 75 -4 30 -16 96 -27 145 -11 50 -21 97 -23 106 -10 51 -69 231 -101
311 -308 779 -981 1363 -1789 1553 -98 23 -139 31 -220 41 -22 3 -51 8 -65 10
-55 10 -403 25 -413 18z m-177 -1004 c260 -47 492 -185 659 -391 28 -35 56
-70 62 -77 5 -6 31 -54 58 -105 117 -226 151 -460 105 -727 -11 -64 -65 -214
-100 -278 -19 -34 -34 -68 -34 -75 0 -7 25 -36 55 -64 58 -55 65 -74 39 -100
-14 -15 -12 -20 30 -62 l46 -45 33 32 c18 18 38 32 45 32 7 0 190 -178 407
-395 442 -443 447 -449 448 -570 2 -213 -203 -357 -403 -283 -50 19 -90 56
-457 421 -222 221 -403 408 -403 416 0 8 14 29 31 47 l30 31 -45 46 c-25 26
-48 42 -51 37 -3 -5 -15 -15 -26 -20 -17 -10 -29 -2 -84 51 l-64 62 -78 -40
c-76 -40 -172 -76 -229 -88 -288 -59 -520 -33 -758 86 -270 135 -476 382 -560
672 -35 119 -41 174 -39 332 1 114 6 158 26 237 77 294 257 535 515 687 116
68 282 124 409 137 32 4 59 8 61 9 8 7 213 -4 272 -15z"/>
<path d="M1975 3809 c-33 -5 -70 -13 -83 -19 -13 -5 -30 -10 -38 -10 -29 0
-178 -77 -239 -123 -378 -286 -418 -834 -86 -1176 228 -234 582 -299 884 -163
276 126 457 406 457 711 0 479 -419 843 -895 780z m588 -338 c41 -1 54 -6 78
-32 l29 -31 0 -370 c0 -402 -2 -418 -56 -438 -38 -15 -1026 -13 -1058 1 -51
24 -53 41 -53 432 0 440 -4 425 111 436 48 5 671 6 949 2z"/>
<path d="M1573 3398 c-4 -7 -8 -160 -9 -340 0 -366 -7 -342 74 -258 144 152
226 230 239 230 8 0 39 -25 69 -56 l54 -56 137 142 c75 78 144 145 153 150 19
10 15 14 189 -164 68 -69 125 -126 127 -126 2 0 4 105 4 233 0 168 -3 236 -12
245 -18 18 -1013 17 -1025 0z m501 -110 c33 -14 58 -53 61 -92 7 -77 -72 -141
-148 -122 -35 8 -74 52 -81 90 -18 95 78 166 168 124z"/>
<path d="M2969 2139 l-86 -88 46 -45 47 -46 87 88 c48 48 87 90 87 94 0 9 -82
88 -89 87 -3 -1 -45 -41 -92 -90z"/>
<path d="M3258 1862 l-167 -167 20 -24 20 -24 26 24 c14 13 91 89 170 168
l144 144 -23 24 -23 23 -167 -168z"/>
</g>
</svg>
